<?xml version="1.0" standalone="no"?><!-- Generator: Gravit.io --><svg xmlns="http://www.w3.org/2000/svg" xmlns:xlink="http://www.w3.org/1999/xlink" style="isolation:isolate" viewBox="0 0 450 450" width="450" height="100"><defs><clipPath id="_clipPath_sZpT84RFVphhOaxuobAZ6lklPKXBmmzR"><rect width="450" height="450"/></clipPath></defs><g clip-path="url(#_clipPath_sZpT84RFVphhOaxuobAZ6lklPKXBmmzR)"><g id="Group"><path d=" M 114 329 L 114 343.5 C 114 352.607 106.607 360 97.5 360 L 97.5 360 C 88.393 360 81 352.607 81 343.5 L 81 329 L 114 329 Z " fill="rgb(223,186,161)"/><path d=" M 92 347.5 C 92 344.464 94.464 342 97.5 342 C 100.536 342 103 344.464 103 347.5 C 103 350.536 100.536 353 97.5 353 C 94.464 353 92 350.536 92 347.5 Z " fill="rgb(179,156,142)"/><rect x="81" y="328" width="33" height="8" transform="matrix(1,0,0,1,0,0)" fill="rgb(167,139,121)"/></g><g id="Group"><path d=" M 380 329 L 380 343.5 C 380 352.607 372.607 360 363.5 360 L 363.5 360 C 354.393 360 347 352.607 347 343.5 L 347 329 L 380 329 Z " fill="rgb(223,186,161)"/><path d=" M 358 347.5 C 358 344.464 360.464 342 363.5 342 C 366.536 342 369 344.464 369 347.5 C 369 350.536 366.536 353 363.5 353 C 360.464 353 358 350.536 358 347.5 Z " fill="rgb(179,156,142)"/><rect x="347" y="328" width="33" height="8" transform="matrix(1,0,0,1,0,0)" fill="rgb(167,139,121)"/></g><path d="M 57.5 316 L 402.5 316 C 406.087 316 409 318.913 409 322.5 L 409 322.5 C 409 326.087 406.087 329 402.5 329 L 57.5 329 C 53.913 329 51 326.087 51 322.5 L 51 322.5 C 51 318.913 53.913 316 57.5 316 Z" style="stroke:none;fill:#E4AB7E;stroke-miterlimit:10;"/></g></svg>